<?xml version="1.0" encoding="UTF-8" standalone="no"?>
<!-- Creator: fig2dev Version 3.2 Patchlevel 5 -->

<!-- CreationDate: Tue Apr 22 12:41:22 2008 -->

<!-- Magnification: 1.000 -->

<svg
   xmlns:dc="http://purl.org/dc/elements/1.1/"
   xmlns:cc="http://creativecommons.org/ns#"
   xmlns:rdf="http://www.w3.org/1999/02/22-rdf-syntax-ns#"
   xmlns:svg="http://www.w3.org/2000/svg"
   xmlns="http://www.w3.org/2000/svg"
   xmlns:sodipodi="http://sodipodi.sourceforge.net/DTD/sodipodi-0.dtd"
   xmlns:inkscape="http://www.inkscape.org/namespaces/inkscape"
   width="501.82983"
   height="493.51981"
   viewBox="-4 10002 6705.9999 6505.1198"
   id="svg2"
   sodipodi:version="0.32"
   inkscape:version="0.48.1 r9760"
   sodipodi:docname="acin.svg"
   inkscape:output_extension="org.inkscape.output.svg.inkscape"
   version="1.1">
  <metadata
     id="metadata27">
    <rdf:RDF>
      <cc:Work
         rdf:about="">
        <dc:format>image/svg+xml</dc:format>
        <dc:type
           rdf:resource="http://purl.org/dc/dcmitype/StillImage" />
      </cc:Work>
    </rdf:RDF>
  </metadata>
  <defs
     id="defs25" />
  <sodipodi:namedview
     inkscape:window-height="973"
     inkscape:window-width="1680"
     inkscape:pageshadow="2"
     inkscape:pageopacity="0.0"
     guidetolerance="10.0"
     gridtolerance="10.0"
     objecttolerance="10.0"
     borderopacity="1.0"
     bordercolor="#666666"
     pagecolor="#ffffff"
     id="base"
     inkscape:zoom="1.468254"
     inkscape:cx="249.82984"
     inkscape:cy="245.75328"
     inkscape:window-x="0"
     inkscape:window-y="24"
     inkscape:current-layer="svg2"
     showgrid="false"
     fit-margin-top="128"
     fit-margin-left="0"
     fit-margin-right="0"
     fit-margin-bottom="128"
     inkscape:window-maximized="1" />
  <path
     style="fill:#002fa7;stroke:#002fa7;stroke-width:0;stroke-linecap:butt;stroke-linejoin:miter"
     d="m 1889.4994,12572.935 -446.8285,1283.692 494.0169,0 38.0013,-159.939 351.6165,0 43.0124,159.939 494.017,0 -457.686,-1283.692 -516.1496,0 z m 253.0636,428.037 0.8352,0 4.176,0 7.0991,0 3.7584,0 1.2521,0 0,0.835 0.8352,4.176 0.8352,6.681 2.088,9.187 2.088,12.111 2.088,10.857 0,5.011 0.8351,0.836 0,5.011 2.088,11.275 2.088,10.857 0.8352,5.012 0,0.835 0.8352,5.011 2.088,11.275 2.088,11.693 2.088,9.187 0.8351,7.099 1.2522,3.758 0,1.253 0,1.67 1.6704,8.352 4.1759,12.945 2.088,7.935 0,2.088 0,0.835 0.8352,2.923 2.088,10.022 4.176,16.287 5.8463,22.967 7.0991,28.815 6.6816,30.902 8.3519,32.155 6.6816,28.814 6.2639,22.968 3.7584,16.286 2.088,10.022 0.8352,2.923 0,0.836 -0.8352,0 -5.0112,0 -10.8575,0 -20.0446,0 -25.891,0 -31.3198,0 -30.9021,0 -25.891,0 -20.0447,0 -10.8575,0 -5.0112,0 -1.2521,0 1.2521,-2.923 0.8352,-5.847 2.088,-11.275 3.7584,-15.869 5.0112,-22.967 6.2639,-27.979 7.0991,-32.991 7.9344,-37.166 7.9343,-38.836 8.7696,-38.837 8.3519,-37.166 6.6815,-32.99 6.264,-27.979 5.0111,-22.968 3.7584,-16.286 2.088,-10.858 0.8352,-5.846 1.2521,-2.923 z"
     id="polyline6"
     inkscape:connector-curvature="0" />
  <polyline
     id="polyline10"
     style="fill:#002fa7;stroke:#002fa7;stroke-width:0;stroke-linecap:butt;stroke-linejoin:bevel"
     points="3749,11442 3748,11441 3740,11434 3725,11422 3710,11410 3702,11403 3701,11402 3700,11401 3696,11398 3689,11393 3679,11386 3666,11377 3650,11367 3634,11358 3626,11353 3623,11351 3620,11349 3612,11345 3595,11338 3578,11331 3569,11328 3566,11327 3563,11326 3554,11324 3536,11320 3517,11317 3502,11315 3490,11314 3480,11313 3475,11313 3474,11313 3473,11313 3467,11314 3453,11316 3434,11320 3415,11323 3401,11325 3395,11326 3394,11326 3393,11326 3390,11327 3384,11330 3375,11333 3365,11337 3354,11343 3340,11351 3325,11361 3311,11372 3302,11379 3297,11383 3295,11385 3293,11387 3289,11392 3281,11401 3270,11415 3260,11430 3253,11440 3250,11445 3249,11447 3247,11450 3245,11456 3240,11467 3234,11484 3229,11502 3225,11517 3223,11531 3222,11542 3221,11552 3221,11559 3221,11562 3221,11563 3221,11564 3222,11570 3224,11584 3228,11604 3231,11623 3233,11637 3234,11643 3234,11644 3234,11645 3235,11648 3238,11654 3242,11663 3247,11673 3253,11685 3261,11698 3272,11713 3283,11727 3291,11736 3296,11740 3298,11742 3300,11744 3305,11748 3314,11755 3329,11766 3344,11776 3355,11782 3360,11785 3363,11787 3366,11788 3372,11791 3384,11795 3401,11801 3419,11806 3435,11810 3449,11812 3460,11813 3470,11814 3477,11814 3480,11814 3481,11814 3483,11814 3493,11813 3512,11811 3531,11809 3541,11808 3543,11808 3544,11808 3549,11807 3558,11805 3569,11803 3583,11799 3600,11793 3616,11787 3624,11783 3627,11782 3630,11780 3638,11776 3653,11768 3668,11759 3675,11755 3678,11753 3681,11751 3688,11746 3702,11735 3717,11723 3728,11713 3737,11705 3744,11698 3748,11695 3749,11694 3749,11697 3749,11705 3748,11718 3748,11738 3747,11766 3746,11801 3745,11842 3743,11887 3742,11935 3741,11982 3739,12027 3738,12068 3737,12103 3736,12131 3736,12151 3735,12164 3735,12172 3735,12175 3733,12176 3724,12179 3707,12185 3691,12190 3682,12193 3680,12194 3677,12195 3671,12196 3663,12198 3653,12200 3642,12202 3627,12205 3610,12208 3593,12211 3581,12212 3575,12213 3572,12214 3569,12214 3563,12215 3551,12216 3534,12218 3517,12220 3505,12221 3499,12221 3497,12222 3494,12222 3488,12222 3477,12223 3462,12224 3442,12225 3428,12226 3417,12226 3408,12226 3404,12226 3403,12226 3402,12226 3399,12225 3390,12224 3375,12222 3354,12218 3328,12214 3298,12209 3269,12205 3243,12201 3222,12197 3207,12195 3198,12194 3195,12193 3194,12193 3192,12192 3188,12191 3181,12188 3171,12185 3159,12180 3146,12175 3131,12168 3115,12161 3098,12153 3079,12143 3059,12131 3038,12118 3015,12102 2993,12086 2975,12071 2961,12059 2951,12051 2944,12046 2940,12042 2938,12040 2935,12037 2932,12033 2926,12027 2918,12017 2906,12003 2892,11985 2875,11963 2859,11941 2846,11921 2836,11905 2829,11894 2825,11887 2822,11883 2820,11879 2818,11876 2816,11871 2813,11863 2808,11851 2801,11834 2792,11811 2783,11784 2775,11756 2768,11731 2763,11707 2759,11685 2756,11666 2754,11647 2753,11630 2752,11614 2751,11601 2750,11590 2750,11582 2750,11577 2750,11575 2750,11574 2751,11571 2752,11562 2754,11547 2758,11525 2762,11498 2767,11468 2772,11438 2776,11411 2780,11389 2782,11374 2783,11365 2784,11362 2784,11361 2785,11359 2786,11355 2789,11348 2792,11338 2797,11325 2803,11311 2809,11296 2817,11279 2825,11262 2835,11243 2847,11222 2862,11200 2878,11176 2895,11153 2910,11134 2922,11119 2931,11109 2937,11102 2940,11098 2943,11095 2946,11093 2950,11089 2957,11083 2967,11075 2981,11063 3000,11047 3023,11030 3046,11014 3067,11000 3083,10990 3094,10983 3101,10978 3106,10975 3109,10973 3113,10971 3118,10969 3126,10966 3138,10960 3156,10953 3180,10944 3207,10935 3235,10927 3262,10920 3286,10914 3308,10910 3329,10908 3348,10905 3365,10904 3381,10903 3396,10902 3407,10901 3415,10901 3420,10901 3422,10901 3424,10901 3434,10901 3454,10902 3473,10903 3483,10903 3485,10903 3488,10903 3493,10904 3501,10904 3510,10905 3521,10906 3534,10907 3549,10909 3568,10912 3577,10913 3581,10914 3584,10914 3594,10916 3612,10920 3627,10923 3636,10925 3641,10926 3644,10927 3646,10927 3651,10929 3661,10931 3675,10935 3694,10940 3709,10945 3720,10948 3729,10951 3734,10953 3735,10953 3735,10956 3735,10961 3736,10972 3736,10988 3737,11010 3737,11038 3738,11072 3740,11111 3741,11153 3742,11198 3743,11242 3744,11284 3746,11323 3747,11357 3747,11385 3748,11407 3748,11423 3749,11434 3749,11439 3749,11442 "
     transform="translate(-14.5,1651.7881)" />
  <polyline
     id="polyline12"
     style="fill:#002fa7;stroke:#002fa7;stroke-width:0;stroke-linecap:butt;stroke-linejoin:miter"
     points="3883,12205 4350,12205 4350,11304 3883,11304 3883,12205 "
     transform="translate(-14.5,1651.7881)" />
  <polyline
     id="polyline14"
     style="fill:#002fa7;stroke:#002fa7;stroke-width:0;stroke-linecap:butt;stroke-linejoin:bevel"
     points="4481,10921 4484,10921 4491,10921 4504,10921 4522,10921 4548,10921 4580,10921 4618,10921 4661,10921 4705,10921 4749,10921 4792,10921 4830,10921 4862,10921 4888,10921 4906,10921 4919,10921 4926,10921 4929,10921 4930,10923 4933,10927 4937,10935 4944,10947 4954,10964 4968,10987 4984,11015 5004,11048 5027,11087 5052,11130 5080,11177 5109,11226 5139,11277 5168,11328 5197,11377 5225,11424 5250,11467 5273,11506 5293,11539 5309,11567 5323,11590 5333,11607 5340,11619 5344,11627 5347,11631 5348,11633 5349,11633 5352,11633 5357,11633 5360,11633 5361,11633 5361,11632 5360,11627 5358,11616 5356,11601 5353,11585 5351,11574 5350,11569 5350,11568 5350,11565 5349,11560 5347,11552 5346,11543 5344,11532 5342,11519 5340,11503 5338,11488 5336,11478 5336,11472 5335,11470 5335,11468 5334,11462 5333,11452 5331,11437 5329,11422 5328,11412 5327,11407 5327,11405 5327,11402 5326,11397 5325,11387 5324,11372 5323,11356 5322,11343 5322,11332 5322,11323 5322,11315 5322,11309 5322,11306 5322,11302 5322,11294 5322,11280 5322,11259 5322,11230 5322,11196 5322,11156 5322,11113 5322,11071 5322,11031 5322,10997 5322,10968 5322,10947 5322,10933 5322,10925 5322,10921 5325,10921 5332,10921 5344,10921 5363,10921 5389,10921 5421,10921 5459,10921 5501,10921 5546,10921 5590,10921 5632,10921 5670,10921 5702,10921 5728,10921 5747,10921 5759,10921 5766,10921 5769,10921 5769,10923 5769,10927 5769,10935 5769,10948 5769,10967 5769,10991 5769,11022 5769,11059 5769,11104 5769,11155 5769,11212 5769,11275 5769,11342 5769,11414 5769,11488 5769,11563 5769,11638 5769,11712 5769,11784 5769,11851 5769,11914 5769,11971 5769,12022 5769,12067 5769,12104 5769,12135 5769,12159 5769,12178 5769,12191 5769,12199 5769,12203 5769,12205 5766,12205 5759,12205 5747,12205 5728,12205 5702,12205 5670,12205 5632,12205 5590,12205 5545,12205 5501,12205 5459,12205 5421,12205 5389,12205 5363,12205 5344,12205 5332,12205 5325,12205 5322,12205 5321,12203 5318,12199 5314,12192 5307,12180 5297,12164 5284,12143 5268,12116 5249,12084 5226,12048 5201,12007 5175,11963 5146,11916 5117,11868 5088,11820 5059,11773 5033,11729 5008,11688 4985,11652 4966,11620 4950,11593 4937,11572 4927,11556 4920,11544 4916,11537 4913,11533 4912,11531 4911,11531 4908,11531 4902,11531 4899,11531 4898,11531 4898,11533 4900,11541 4903,11558 4905,11574 4907,11582 4907,11584 4907,11585 4908,11589 4909,11597 4911,11607 4913,11619 4915,11635 4917,11650 4918,11658 4918,11661 4919,11663 4919,11671 4921,11686 4922,11701 4923,11709 4923,11712 4924,11714 4924,11722 4925,11737 4926,11753 4926,11765 4927,11775 4927,11783 4927,11787 4927,11788 4927,11791 4927,11797 4927,11809 4927,11827 4927,11850 4927,11881 4927,11916 4927,11955 4927,11997 4927,12038 4927,12077 4927,12112 4927,12143 4927,12166 4927,12184 4927,12196 4927,12202 4927,12205 4924,12205 4917,12205 4905,12205 4886,12205 4860,12205 4828,12205 4790,12205 4748,12205 4704,12205 4660,12205 4618,12205 4580,12205 4548,12205 4522,12205 4503,12205 4491,12205 4484,12205 4481,12205 4481,12203 4481,12199 4481,12191 4481,12178 4481,12159 4481,12135 4481,12104 4481,12067 4481,12022 4481,11971 4481,11914 4481,11851 4481,11784 4481,11712 4481,11638 4481,11563 4481,11488 4481,11414 4481,11342 4481,11275 4481,11212 4481,11155 4481,11104 4481,11059 4481,11022 4481,10991 4481,10967 4481,10948 4481,10935 4481,10927 4481,10923 4481,10921 "
     transform="translate(-14.5,1651.7881)" />
  <polyline
     id="polyline16"
     style="fill:#f6bc08;stroke:#f6bc08;stroke-width:0;stroke-linecap:butt;stroke-linejoin:bevel"
     points="190,12838 190,12837 189,12835 188,12830 187,12828 187,12827 187,12825 186,12823 186,12821 185,12817 184,12814 184,12812 184,12810 183,12807 183,12803 182,12802 183,12801 182,12800 182,12796 181,12792 181,12790 180,12787 180,12786 180,12785 180,12780 181,12768 182,12750 184,12726 186,12703 187,12685 188,12673 188,12668 188,12667 189,12664 190,12658 193,12649 196,12638 200,12624 205,12610 212,12593 220,12574 230,12552 241,12531 249,12515 255,12505 258,12500 260,12497 262,12494 266,12489 272,12479 282,12464 296,12444 310,12424 321,12410 328,12400 332,12395 334,12393 336,12390 340,12385 348,12377 359,12363 374,12345 389,12327 403,12312 414,12299 424,12288 433,12279 441,12270 447,12264 451,12260 453,12258 456,12255 462,12249 472,12240 487,12225 505,12208 526,12188 546,12168 564,12151 579,12136 589,12127 595,12121 598,12118 599,12117 603,12114 608,12109 616,12102 625,12094 636,12085 648,12074 661,12063 676,12051 692,12037 710,12022 731,12006 753,11988 775,11971 794,11956 809,11944 820,11936 826,11931 831,11928 833,11926 836,11924 841,11921 847,11916 858,11909 873,11898 893,11883 916,11867 939,11851 959,11837 974,11826 985,11819 992,11814 996,11811 999,11809 1002,11807 1007,11804 1014,11799 1025,11792 1040,11782 1060,11768 1084,11753 1108,11738 1130,11723 1150,11711 1167,11700 1184,11690 1198,11680 1212,11672 1224,11665 1235,11658 1244,11653 1250,11649 1253,11647 1255,11646 1256,11645 1264,11641 1278,11632 1291,11623 1299,11619 1300,11618 1301,11618 1305,11615 1312,11611 1321,11606 1332,11599 1346,11591 1359,11583 1366,11579 1369,11577 1371,11576 1378,11572 1391,11564 1404,11556 1411,11552 1414,11551 1416,11550 1424,11546 1437,11538 1451,11530 1462,11523 1472,11518 1478,11514 1482,11511 1483,11511 1483,11510 1481,11507 1477,11498 1469,11482 1459,11459 1445,11431 1430,11400 1416,11369 1402,11341 1392,11318 1384,11302 1380,11293 1378,11290 1378,11289 1377,11290 1371,11293 1360,11300 1349,11306 1343,11309 1342,11310 1341,11310 1338,11312 1333,11315 1326,11319 1317,11324 1306,11330 1295,11336 1290,11339 1288,11340 1286,11341 1281,11344 1270,11350 1259,11356 1254,11359 1252,11360 1250,11362 1244,11365 1234,11371 1223,11378 1214,11383 1208,11387 1202,11390 1200,11392 1199,11392 1195,11394 1188,11399 1175,11406 1157,11417 1134,11431 1109,11446 1084,11461 1061,11475 1043,11486 1030,11493 1023,11498 1019,11500 1017,11501 1014,11503 1007,11507 998,11513 987,11520 975,11528 960,11537 945,11547 929,11558 910,11570 890,11583 867,11598 843,11615 819,11632 798,11646 782,11657 771,11665 764,11670 760,11673 757,11675 754,11677 749,11680 742,11685 731,11693 716,11704 695,11719 672,11737 649,11755 629,11770 613,11782 602,11790 595,11795 591,11799 588,11801 585,11803 581,11807 574,11812 564,11821 549,11833 529,11849 507,11868 485,11887 464,11905 446,11921 429,11935 415,11949 401,11961 389,11972 378,11982 369,11991 361,11998 356,12004 353,12007 351,12008 350,12009 347,12013 338,12021 324,12036 306,12053 289,12070 275,12085 266,12093 263,12097 262,12098 260,12100 255,12105 248,12112 240,12122 230,12132 219,12145 207,12159 193,12176 177,12196 162,12216 151,12231 144,12241 140,12246 137,12249 135,12251 132,12257 125,12267 116,12283 103,12304 91,12325 82,12342 77,12352 73,12357 72,12360 70,12363 68,12369 63,12379 56,12396 48,12419 40,12442 34,12463 29,12481 26,12497 23,12511 21,12524 19,12533 18,12540 18,12543 18,12544 19,12549 20,12561 21,12580 24,12604 26,12627 27,12646 28,12658 29,12663 29,12664 30,12667 32,12673 35,12682 39,12694 44,12708 50,12723 58,12740 68,12759 80,12781 93,12802 103,12818 110,12828 114,12833 116,12836 118,12839 123,12844 130,12853 143,12868 159,12887 176,12905 189,12919 197,12928 202,12933 205,12935 208,12938 212,12942 221,12950 236,12962 254,12977 273,12992 290,13004 304,13014 317,13023 329,13030 338,13036 346,13041 351,13044 354,13045 355,13045 358,13047 367,13051 382,13058 402,13067 425,13077 448,13087 468,13096 483,13103 492,13107 495,13109 496,13109 498,13110 503,13111 511,13114 521,13117 533,13121 548,13125 563,13129 580,13134 600,13138 623,13144 648,13149 673,13154 694,13158 708,13160 718,13162 723,13163 726,13163 730,13163 735,13164 745,13165 760,13167 781,13169 806,13172 831,13174 853,13176 867,13177 877,13178 882,13178 886,13178 889,13178 895,13178 904,13179 919,13179 940,13180 965,13181 991,13182 1014,13182 1034,13183 1051,13183 1067,13183 1082,13183 1094,13183 1105,13183 1113,13183 1118,13183 1120,13183 1121,13183 1125,13183 1135,13183 1152,13182 1177,13181 1208,13180 1243,13179 1278,13178 1309,13177 1334,13176 1351,13175 1361,13175 1365,13175 1366,13175 1368,13175 1374,13175 1382,13174 1395,13173 1410,13172 1428,13171 1447,13169 1468,13168 1492,13166 1517,13164 1546,13161 1578,13158 1612,13154 1646,13150 1676,13147 1698,13144 1714,13142 1724,13141 1731,13140 1735,13139 1739,13139 1745,13138 1755,13136 1771,13134 1794,13130 1823,13126 1857,13121 1891,13116 1920,13111 1943,13108 1958,13105 1968,13103 1975,13102 1979,13102 1983,13101 1989,13100 1999,13098 2015,13095 2037,13091 2066,13086 2100,13080 2134,13074 2165,13068 2194,13062 2219,13057 2242,13053 2262,13049 2282,13045 2299,13041 2314,13038 2326,13035 2335,13034 2340,13033 2342,13032 2344,13031 2350,13030 2360,13028 2375,13024 2396,13019 2423,13013 2457,13005 2496,12995 2539,12985 2586,12974 2634,12962 2682,12950 2729,12939 2772,12929 2811,12919 2845,12911 2872,12905 2893,12900 2908,12896 2918,12894 2924,12893 2926,12892 2927,12892 2930,12891 2935,12890 2943,12887 2953,12885 2967,12881 2983,12876 3002,12871 3023,12865 3046,12859 3071,12852 3098,12844 3126,12836 3155,12828 3185,12819 3217,12809 3251,12799 3287,12788 3326,12776 3367,12763 3410,12749 3457,12735 3504,12719 3551,12703 3596,12688 3636,12675 3672,12663 3701,12653 3725,12644 3744,12638 3759,12633 3770,12629 3778,12626 3784,12624 3790,12622 3795,12620 3802,12618 3810,12615 3821,12611 3835,12605 3854,12598 3878,12589 3907,12578 3942,12565 3982,12550 4026,12533 4072,12515 4118,12497 4162,12479 4202,12464 4236,12450 4265,12438 4289,12428 4307,12421 4321,12415 4332,12411 4340,12407 4347,12405 4352,12402 4357,12400 4363,12397 4371,12394 4382,12389 4396,12383 4414,12375 4438,12365 4466,12352 4500,12337 4539,12320 4582,12300 4627,12280 4672,12259 4716,12239 4757,12220 4796,12201 4832,12184 4866,12168 4898,12153 4928,12138 4956,12124 4983,12111 5009,12098 5033,12085 5056,12074 5078,12063 5097,12053 5115,12044 5130,12036 5142,12030 5152,12025 5159,12021 5163,12019 5166,12018 5167,12017 5170,12015 5178,12011 5190,12004 5209,11994 5234,11981 5263,11966 5294,11949 5325,11932 5354,11917 5379,11904 5398,11894 5410,11887 5418,11883 5421,11881 5423,11880 5426,11878 5433,11874 5442,11869 5454,11862 5468,11854 5484,11845 5502,11835 5520,11824 5540,11813 5562,11800 5586,11786 5612,11770 5641,11753 5671,11734 5701,11715 5728,11698 5749,11685 5766,11675 5777,11667 5785,11663 5790,11659 5794,11657 5797,11655 5802,11652 5810,11647 5821,11639 5837,11628 5858,11614 5884,11596 5913,11576 5942,11556 5968,11537 5989,11522 6004,11511 6015,11503 6023,11498 6028,11495 6031,11492 6035,11490 6039,11486 6047,11480 6057,11472 6073,11460 6093,11445 6117,11425 6145,11403 6173,11381 6198,11359 6221,11340 6242,11322 6261,11306 6278,11290 6294,11276 6309,11263 6323,11250 6335,11240 6344,11230 6352,11223 6358,11218 6361,11215 6362,11214 6365,11211 6372,11204 6383,11193 6398,11178 6416,11160 6433,11143 6448,11128 6459,11117 6466,11110 6469,11107 6471,11105 6474,11101 6480,11095 6488,11087 6498,11076 6508,11065 6519,11052 6532,11037 6545,11020 6560,11001 6576,10979 6591,10957 6604,10939 6613,10926 6618,10918 6622,10913 6624,10910 6626,10907 6629,10903 6634,10894 6641,10880 6651,10861 6662,10838 6672,10814 6680,10795 6686,10781 6689,10772 6691,10767 6693,10764 6694,10760 6696,10755 6698,10746 6701,10732 6704,10711 6707,10687 6709,10662 6709,10640 6708,10620 6706,10602 6704,10586 6701,10572 6699,10559 6696,10548 6694,10540 6693,10535 6692,10533 6692,10532 6692,10531 6691,10531 6691,10530 6691,10529 6691,10528 6691,10527 6690,10527 6690,10526 6687,10520 6683,10509 6679,10499 6676,10493 6676,10492 6676,10491 6673,10486 6666,10475 6656,10457 6643,10435 6631,10414 6621,10396 6614,10385 6611,10380 6611,10379 6609,10376 6605,10371 6599,10363 6590,10353 6581,10341 6570,10328 6557,10314 6541,10298 6523,10280 6505,10263 6490,10250 6481,10242 6476,10238 6473,10236 6470,10234 6465,10230 6455,10223 6440,10212 6419,10198 6398,10184 6382,10174 6372,10168 6366,10164 6363,10162 6360,10161 6354,10158 6343,10152 6326,10144 6304,10133 6281,10123 6260,10114 6243,10107 6227,10102 6213,10097 6201,10094 6191,10091 6185,10089 6182,10088 6181,10088 6177,10087 6165,10084 6146,10080 6121,10075 6091,10068 6062,10062 6037,10057 6018,10053 6006,10050 6002,10049 6001,10049 5998,10049 5992,10048 5983,10046 5970,10045 5955,10043 5937,10040 5918,10038 5897,10036 5873,10034 5845,10031 5815,10029 5785,10027 5760,10026 5743,10025 5731,10025 5725,10024 5721,10024 5717,10024 5711,10024 5700,10024 5682,10024 5657,10024 5627,10024 5597,10024 5572,10025 5554,10025 5543,10025 5537,10026 5533,10026 5529,10026 5522,10027 5511,10027 5494,10028 5469,10029 5439,10031 5409,10033 5381,10034 5358,10036 5337,10037 5318,10039 5301,10040 5285,10041 5273,10042 5263,10043 5258,10044 5255,10044 5252,10044 5245,10045 5233,10047 5214,10049 5189,10052 5156,10056 5116,10061 5071,10067 5022,10073 4971,10080 4920,10086 4871,10092 4826,10098 4786,10103 4753,10107 4728,10110 4709,10112 4697,10114 4690,10115 4687,10115 4685,10115 4682,10116 4676,10117 4667,10119 4654,10121 4638,10124 4619,10127 4597,10131 4572,10136 4546,10140 4518,10146 4488,10151 4457,10158 4424,10164 4390,10171 4352,10179 4313,10187 4270,10197 4224,10207 4175,10218 4125,10230 4075,10242 4028,10254 3986,10264 3950,10273 3921,10280 3898,10286 3881,10290 3868,10294 3859,10296 3852,10298 3846,10300 3840,10301 3833,10303 3823,10306 3811,10309 3793,10314 3771,10321 3742,10329 3707,10339 3665,10352 3619,10365 3569,10380 3520,10395 3473,10409 3432,10422 3397,10433 3368,10442 3346,10449 3329,10455 3316,10459 3307,10462 3300,10464 3294,10466 3289,10468 3282,10470 3273,10474 3260,10478 3243,10484 3221,10492 3193,10502 3158,10514 3117,10528 3072,10544 3023,10561 2974,10578 2927,10595 2883,10612 2842,10627 2804,10641 2769,10654 2736,10667 2705,10679 2675,10690 2647,10701 2621,10712 2596,10722 2573,10731 2552,10739 2534,10746 2519,10752 2507,10757 2498,10761 2493,10763 2489,10764 2488,10765 2488,10766 2490,10769 2496,10778 2504,10792 2517,10813 2533,10839 2550,10868 2567,10897 2583,10923 2596,10944 2604,10958 2610,10967 2612,10970 2612,10971 2615,10970 2621,10968 2632,10963 2649,10957 2673,10948 2703,10936 2739,10922 2780,10906 2825,10889 2872,10870 2919,10852 2964,10835 3005,10819 3041,10805 3071,10793 3095,10784 3112,10778 3123,10773 3129,10771 3132,10770 3133,10769 3137,10768 3142,10766 3151,10763 3163,10759 3178,10754 3196,10747 3216,10740 3239,10732 3264,10723 3290,10714 3318,10704 3347,10694 3378,10684 3411,10673 3446,10661 3483,10649 3524,10636 3567,10622 3614,10608 3662,10593 3710,10578 3755,10565 3795,10553 3830,10543 3858,10535 3880,10528 3896,10523 3909,10520 3918,10517 3925,10515 3930,10513 3936,10512 3943,10510 3952,10508 3964,10504 3981,10500 4003,10494 4031,10487 4066,10478 4107,10468 4152,10456 4201,10444 4250,10432 4296,10421 4336,10412 4371,10403 4399,10397 4422,10392 4439,10388 4451,10385 4460,10383 4467,10381 4473,10380 4479,10378 4486,10377 4495,10375 4508,10373 4525,10369 4547,10365 4576,10359 4611,10352 4652,10345 4698,10336 4747,10327 4796,10318 4844,10310 4889,10303 4931,10296 4970,10290 5006,10284 5040,10280 5072,10275 5103,10271 5132,10267 5159,10264 5185,10260 5209,10257 5230,10255 5249,10253 5265,10251 5277,10249 5286,10248 5292,10248 5296,10247 5297,10247 5298,10247 5302,10246 5313,10245 5331,10244 5355,10241 5384,10238 5412,10236 5436,10233 5454,10232 5465,10231 5469,10230 5470,10230 5473,10230 5478,10229 5487,10229 5499,10228 5514,10227 5530,10226 5548,10225 5568,10223 5590,10222 5616,10221 5644,10220 5672,10219 5695,10218 5711,10218 5722,10218 5727,10218 5731,10218 5735,10218 5740,10218 5751,10218 5767,10218 5790,10218 5818,10218 5846,10218 5869,10219 5885,10219 5896,10220 5902,10220 5905,10220 5909,10220 5915,10220 5925,10221 5941,10221 5964,10223 5992,10225 6020,10227 6046,10230 6068,10232 6088,10234 6105,10237 6121,10239 6135,10241 6147,10242 6156,10244 6161,10245 6164,10245 6166,10245 6176,10247 6194,10250 6212,10253 6222,10255 6224,10255 6225,10255 6230,10256 6239,10258 6250,10260 6265,10263 6283,10267 6300,10271 6309,10274 6312,10274 6315,10275 6324,10278 6341,10283 6358,10288 6367,10291 6370,10292 6373,10293 6382,10296 6399,10302 6417,10309 6430,10314 6441,10318 6450,10322 6454,10324 6455,10324 6456,10324 6460,10326 6465,10328 6469,10330 6470,10330 6472,10331 6475,10332 6479,10334 6484,10337 6489,10340 6491,10341 6493,10342 6498,10345 6503,10348 6505,10349 6507,10350 6512,10353 6517,10356 6521,10358 6524,10360 6526,10361 6527,10362 6530,10368 6534,10377 6537,10383 6538,10384 6538,10385 6538,10389 6539,10400 6540,10416 6542,10436 6543,10456 6544,10472 6545,10483 6545,10487 6545,10488 6545,10491 6544,10496 6543,10504 6541,10514 6539,10526 6536,10539 6532,10553 6527,10571 6521,10590 6514,10609 6509,10623 6505,10632 6503,10637 6501,10639 6500,10642 6497,10647 6493,10655 6486,10669 6476,10687 6466,10705 6458,10718 6453,10727 6450,10731 6448,10734 6447,10736 6444,10741 6438,10749 6429,10762 6418,10778 6406,10795 6396,10809 6387,10821 6378,10831 6371,10840 6365,10847 6360,10853 6357,10857 6355,10859 6354,10860 6351,10863 6343,10872 6330,10886 6312,10906 6291,10929 6271,10952 6253,10972 6240,10986 6232,10995 6229,10998 6228,10999 6226,11001 6222,11005 6215,11012 6205,11021 6194,11032 6181,11044 6167,11058 6151,11073 6132,11089 6111,11108 6088,11128 6065,11148 6046,11164 6032,11175 6023,11182 6018,11187 6015,11189 6012,11191 6007,11195 5998,11202 5984,11213 5964,11228 5940,11247 5916,11265 5896,11281 5881,11291 5872,11298 5867,11302 5864,11304 5860,11306 5855,11310 5846,11317 5831,11327 5811,11341 5786,11359 5761,11377 5738,11392 5717,11406 5699,11418 5683,11429 5669,11438 5655,11447 5644,11454 5636,11459 5631,11462 5629,11464 5626,11466 5621,11469 5610,11475 5594,11485 5572,11498 5544,11515 5510,11536 5471,11559 5429,11584 5384,11611 5340,11638 5298,11663 5259,11686 5225,11707 5197,11724 5175,11737 5159,11747 5148,11753 5143,11756 5140,11758 5139,11759 5136,11760 5130,11763 5122,11768 5111,11774 5096,11782 5079,11791 5060,11802 5038,11813 5014,11826 4989,11839 4963,11853 4935,11868 4905,11883 4873,11899 4840,11916 4804,11934 4764,11954 4722,11974 4678,11996 4631,12018 4584,12040 4541,12060 4502,12078 4468,12093 4441,12106 4420,12116 4403,12123 4391,12128 4383,12132 4376,12135 4370,12138 4365,12140 4358,12143 4349,12146 4337,12151 4320,12158 4299,12167 4271,12179 4237,12193 4197,12209 4153,12228 4105,12247 4057,12266 4012,12284 3972,12300 3938,12313 3910,12324 3888,12332 3872,12339 3859,12343 3850,12347 3844,12349 3838,12351 3832,12353 3825,12356 3816,12359 3804,12363 3787,12369 3765,12377 3737,12387 3702,12400 3662,12414 3616,12430 3568,12447 3519,12464 3472,12480 3428,12495 3387,12509 3349,12521 3313,12533 3279,12544 3248,12554 3218,12564 3189,12573 3162,12581 3137,12589 3113,12596 3092,12603 3073,12609 3058,12613 3046,12617 3037,12620 3031,12622 3027,12623 3026,12623 3022,12624 3014,12626 3000,12630 2980,12636 2953,12644 2922,12653 2888,12663 2854,12673 2823,12682 2796,12690 2776,12696 2762,12700 2754,12702 2750,12703 2748,12704 2744,12705 2737,12707 2727,12709 2714,12713 2698,12717 2680,12722 2661,12727 2640,12732 2618,12738 2594,12744 2567,12751 2538,12759 2505,12767 2471,12775 2437,12783 2406,12791 2382,12796 2363,12801 2350,12804 2341,12806 2335,12807 2331,12808 2327,12809 2322,12811 2313,12813 2300,12816 2281,12820 2256,12825 2225,12832 2191,12839 2157,12846 2126,12853 2101,12858 2082,12862 2069,12864 2060,12866 2054,12867 2050,12868 2046,12869 2040,12870 2031,12872 2018,12874 1999,12878 1973,12882 1943,12888 1908,12894 1873,12900 1840,12906 1811,12911 1784,12915 1759,12919 1736,12923 1715,12926 1696,12929 1678,12931 1662,12934 1649,12936 1638,12937 1631,12938 1627,12939 1625,12939 1624,12939 1621,12940 1612,12941 1597,12943 1576,12945 1549,12949 1519,12953 1489,12956 1462,12960 1441,12962 1426,12964 1417,12965 1414,12966 1413,12966 1411,12966 1406,12967 1399,12968 1388,12969 1375,12970 1360,12972 1343,12973 1325,12975 1305,12977 1282,12979 1258,12981 1230,12983 1200,12985 1170,12987 1145,12988 1125,12989 1111,12990 1102,12991 1097,12991 1093,12991 1089,12991 1084,12991 1075,12992 1061,12992 1041,12992 1016,12993 986,12993 956,12993 931,12993 911,12993 897,12993 888,12993 883,12993 879,12992 876,12992 870,12992 861,12992 848,12991 828,12990 803,12989 773,12987 743,12985 716,12983 691,12980 669,12978 649,12976 631,12974 614,12972 599,12970 586,12968 575,12967 567,12966 563,12965 561,12965 560,12965 555,12964 543,12962 527,12959 510,12956 498,12954 493,12953 492,12953 489,12952 483,12951 475,12950 465,12948 453,12945 439,12942 423,12938 407,12934 397,12931 392,12930 389,12929 387,12929 382,12927 371,12924 356,12919 341,12914 330,12910 325,12908 323,12907 320,12906 315,12904 305,12900 290,12894 275,12887 262,12882 251,12877 242,12873 235,12869 230,12866 227,12865 225,12864 223,12863 221,12862 220,12862 219,12861 217,12860 215,12859 213,12858 212,12857 211,12856 209,12855 207,12854 206,12853 204,12852 202,12851 200,12850 199,12849 198,12848 198,12847 196,12845 192,12841 190,12839 190,12838 "
     transform="translate(-14.5,1651.7881)" />
  <polyline
     id="polyline18"
     style="fill:none;stroke:#000000;stroke-width:15;stroke-linecap:butt;stroke-linejoin:bevel"
     points="190,12838 190,12837 189,12835 188,12830 187,12828 187,12827 187,12825 186,12823 186,12821 185,12817 184,12814 184,12812 184,12810 183,12807 183,12803 182,12802 183,12801 182,12800 182,12796 181,12792 181,12790 180,12787 180,12786 180,12785 180,12780 181,12768 182,12750 184,12726 186,12703 187,12685 188,12673 188,12668 188,12667 189,12664 190,12658 193,12649 196,12638 200,12624 205,12610 212,12593 220,12574 230,12552 241,12531 249,12515 255,12505 258,12500 260,12497 262,12494 266,12489 272,12479 282,12464 296,12444 310,12424 321,12410 328,12400 332,12395 334,12393 336,12390 340,12385 348,12377 359,12363 374,12345 389,12327 403,12312 414,12299 424,12288 433,12279 441,12270 447,12264 451,12260 453,12258 456,12255 462,12249 472,12240 487,12225 505,12208 526,12188 546,12168 564,12151 579,12136 589,12127 595,12121 598,12118 599,12117 603,12114 608,12109 616,12102 625,12094 636,12085 648,12074 661,12063 676,12051 692,12037 710,12022 731,12006 753,11988 775,11971 794,11956 809,11944 820,11936 826,11931 831,11928 833,11926 836,11924 841,11921 847,11916 858,11909 873,11898 893,11883 916,11867 939,11851 959,11837 974,11826 985,11819 992,11814 996,11811 999,11809 1002,11807 1007,11804 1014,11799 1025,11792 1040,11782 1060,11768 1084,11753 1108,11738 1130,11723 1150,11711 1167,11700 1184,11690 1198,11680 1212,11672 1224,11665 1235,11658 1244,11653 1250,11649 1253,11647 1255,11646 1256,11645 1264,11641 1278,11632 1291,11623 1299,11619 1300,11618 1301,11618 1305,11615 1312,11611 1321,11606 1332,11599 1346,11591 1359,11583 1366,11579 1369,11577 1371,11576 1378,11572 1391,11564 1404,11556 1411,11552 1414,11551 1416,11550 1424,11546 1437,11538 1451,11530 1462,11523 1472,11518 1478,11514 1482,11511 1483,11511 1483,11510 1481,11507 1477,11498 1469,11482 1459,11459 1445,11431 1430,11400 1416,11369 1402,11341 1392,11318 1384,11302 1380,11293 1378,11290 1378,11289 1377,11290 1371,11293 1360,11300 1349,11306 1343,11309 1342,11310 1341,11310 1338,11312 1333,11315 1326,11319 1317,11324 1306,11330 1295,11336 1290,11339 1288,11340 1286,11341 1281,11344 1270,11350 1259,11356 1254,11359 1252,11360 1250,11362 1244,11365 1234,11371 1223,11378 1214,11383 1208,11387 1202,11390 1200,11392 1199,11392 1195,11394 1188,11399 1175,11406 1157,11417 1134,11431 1109,11446 1084,11461 1061,11475 1043,11486 1030,11493 1023,11498 1019,11500 1017,11501 1014,11503 1007,11507 998,11513 987,11520 975,11528 960,11537 945,11547 929,11558 910,11570 890,11583 867,11598 843,11615 819,11632 798,11646 782,11657 771,11665 764,11670 760,11673 757,11675 754,11677 749,11680 742,11685 731,11693 716,11704 695,11719 672,11737 649,11755 629,11770 613,11782 602,11790 595,11795 591,11799 588,11801 585,11803 581,11807 574,11812 564,11821 549,11833 529,11849 507,11868 485,11887 464,11905 446,11921 429,11935 415,11949 401,11961 389,11972 378,11982 369,11991 361,11998 356,12004 353,12007 351,12008 350,12009 347,12013 338,12021 324,12036 306,12053 289,12070 275,12085 266,12093 263,12097 262,12098 260,12100 255,12105 248,12112 240,12122 230,12132 219,12145 207,12159 193,12176 177,12196 162,12216 151,12231 144,12241 140,12246 137,12249 135,12251 132,12257 125,12267 116,12283 103,12304 91,12325 82,12342 77,12352 73,12357 72,12360 70,12363 68,12369 63,12379 56,12396 48,12419 40,12442 34,12463 29,12481 26,12497 23,12511 21,12524 19,12533 18,12540 18,12543 18,12544 19,12549 20,12561 21,12580 24,12604 26,12627 27,12646 28,12658 29,12663 29,12664 30,12667 32,12673 35,12682 39,12694 44,12708 50,12723 58,12740 68,12759 80,12781 93,12802 103,12818 110,12828 114,12833 116,12836 118,12839 123,12844 130,12853 143,12868 159,12887 176,12905 189,12919 197,12928 202,12933 205,12935 208,12938 212,12942 221,12950 236,12962 254,12977 273,12992 290,13004 304,13014 317,13023 329,13030 338,13036 346,13041 351,13044 354,13045 355,13045 358,13047 367,13051 382,13058 402,13067 425,13077 448,13087 468,13096 483,13103 492,13107 495,13109 496,13109 498,13110 503,13111 511,13114 521,13117 533,13121 548,13125 563,13129 580,13134 600,13138 623,13144 648,13149 673,13154 694,13158 708,13160 718,13162 723,13163 726,13163 730,13163 735,13164 745,13165 760,13167 781,13169 806,13172 831,13174 853,13176 867,13177 877,13178 882,13178 886,13178 889,13178 895,13178 904,13179 919,13179 940,13180 965,13181 991,13182 1014,13182 1034,13183 1051,13183 1067,13183 1082,13183 1094,13183 1105,13183 1113,13183 1118,13183 1120,13183 1121,13183 1125,13183 1135,13183 1152,13182 1177,13181 1208,13180 1243,13179 1278,13178 1309,13177 1334,13176 1351,13175 1361,13175 1365,13175 1366,13175 1368,13175 1374,13175 1382,13174 1395,13173 1410,13172 1428,13171 1447,13169 1468,13168 1492,13166 1517,13164 1546,13161 1578,13158 1612,13154 1646,13150 1676,13147 1698,13144 1714,13142 1724,13141 1731,13140 1735,13139 1739,13139 1745,13138 1755,13136 1771,13134 1794,13130 1823,13126 1857,13121 1891,13116 1920,13111 1943,13108 1958,13105 1968,13103 1975,13102 1979,13102 1983,13101 1989,13100 1999,13098 2015,13095 2037,13091 2066,13086 2100,13080 2134,13074 2165,13068 2194,13062 2219,13057 2242,13053 2262,13049 2282,13045 2299,13041 2314,13038 2326,13035 2335,13034 2340,13033 2342,13032 2344,13031 2350,13030 2360,13028 2375,13024 2396,13019 2423,13013 2457,13005 2496,12995 2539,12985 2586,12974 2634,12962 2682,12950 2729,12939 2772,12929 2811,12919 2845,12911 2872,12905 2893,12900 2908,12896 2918,12894 2924,12893 2926,12892 2927,12892 2930,12891 2935,12890 2943,12887 2953,12885 2967,12881 2983,12876 3002,12871 3023,12865 3046,12859 3071,12852 3098,12844 3126,12836 3155,12828 3185,12819 3217,12809 3251,12799 3287,12788 3326,12776 3367,12763 3410,12749 3457,12735 3504,12719 3551,12703 3596,12688 3636,12675 3672,12663 3701,12653 3725,12644 3744,12638 3759,12633 3770,12629 3778,12626 3784,12624 3790,12622 3795,12620 3802,12618 3810,12615 3821,12611 3835,12605 3854,12598 3878,12589 3907,12578 3942,12565 3982,12550 4026,12533 4072,12515 4118,12497 4162,12479 4202,12464 4236,12450 4265,12438 4289,12428 4307,12421 4321,12415 4332,12411 4340,12407 4347,12405 4352,12402 4357,12400 4363,12397 4371,12394 4382,12389 4396,12383 4414,12375 4438,12365 4466,12352 4500,12337 4539,12320 4582,12300 4627,12280 4672,12259 4716,12239 4757,12220 4796,12201 4832,12184 4866,12168 4898,12153 4928,12138 4956,12124 4983,12111 5009,12098 5033,12085 5056,12074 5078,12063 5097,12053 5115,12044 5130,12036 5142,12030 5152,12025 5159,12021 5163,12019 5166,12018 5167,12017 5170,12015 5178,12011 5190,12004 5209,11994 5234,11981 5263,11966 5294,11949 5325,11932 5354,11917 5379,11904 5398,11894 5410,11887 5418,11883 5421,11881 5423,11880 5426,11878 5433,11874 5442,11869 5454,11862 5468,11854 5484,11845 5502,11835 5520,11824 5540,11813 5562,11800 5586,11786 5612,11770 5641,11753 5671,11734 5701,11715 5728,11698 5749,11685 5766,11675 5777,11667 5785,11663 5790,11659 5794,11657 5797,11655 5802,11652 5810,11647 5821,11639 5837,11628 5858,11614 5884,11596 5913,11576 5942,11556 5968,11537 5989,11522 6004,11511 6015,11503 6023,11498 6028,11495 6031,11492 6035,11490 6039,11486 6047,11480 6057,11472 6073,11460 6093,11445 6117,11425 6145,11403 6173,11381 6198,11359 6221,11340 6242,11322 6261,11306 6278,11290 6294,11276 6309,11263 6323,11250 6335,11240 6344,11230 6352,11223 6358,11218 6361,11215 6362,11214 6365,11211 6372,11204 6383,11193 6398,11178 6416,11160 6433,11143 6448,11128 6459,11117 6466,11110 6469,11107 6471,11105 6474,11101 6480,11095 6488,11087 6498,11076 6508,11065 6519,11052 6532,11037 6545,11020 6560,11001 6576,10979 6591,10957 6604,10939 6613,10926 6618,10918 6622,10913 6624,10910 6626,10907 6629,10903 6634,10894 6641,10880 6651,10861 6662,10838 6672,10814 6680,10795 6686,10781 6689,10772 6691,10767 6693,10764 6694,10760 6696,10755 6698,10746 6701,10732 6704,10711 6707,10687 6709,10662 6709,10640 6708,10620 6706,10602 6704,10586 6701,10572 6699,10559 6696,10548 6694,10540 6693,10535 6692,10533 6692,10532 6692,10531 6691,10531 6691,10530 6691,10529 6691,10528 6691,10527 6690,10527 6690,10526 6687,10520 6683,10509 6679,10499 6676,10493 6676,10492 6676,10491 6673,10486 6666,10475 6656,10457 6643,10435 6631,10414 6621,10396 6614,10385 6611,10380 6611,10379 6609,10376 6605,10371 6599,10363 6590,10353 6581,10341 6570,10328 6557,10314 6541,10298 6523,10280 6505,10263 6490,10250 6481,10242 6476,10238 6473,10236 6470,10234 6465,10230 6455,10223 6440,10212 6419,10198 6398,10184 6382,10174 6372,10168 6366,10164 6363,10162 6360,10161 6354,10158 6343,10152 6326,10144 6304,10133 6281,10123 6260,10114 6243,10107 6227,10102 6213,10097 6201,10094 6191,10091 6185,10089 6182,10088 6181,10088 6177,10087 6165,10084 6146,10080 6121,10075 6091,10068 6062,10062 6037,10057 6018,10053 6006,10050 6002,10049 6001,10049 5998,10049 5992,10048 5983,10046 5970,10045 5955,10043 5937,10040 5918,10038 5897,10036 5873,10034 5845,10031 5815,10029 5785,10027 5760,10026 5743,10025 5731,10025 5725,10024 5721,10024 5717,10024 5711,10024 5700,10024 5682,10024 5657,10024 5627,10024 5597,10024 5572,10025 5554,10025 5543,10025 5537,10026 5533,10026 5529,10026 5522,10027 5511,10027 5494,10028 5469,10029 5439,10031 5409,10033 5381,10034 5358,10036 5337,10037 5318,10039 5301,10040 5285,10041 5273,10042 5263,10043 5258,10044 5255,10044 5252,10044 5245,10045 5233,10047 5214,10049 5189,10052 5156,10056 5116,10061 5071,10067 5022,10073 4971,10080 4920,10086 4871,10092 4826,10098 4786,10103 4753,10107 4728,10110 4709,10112 4697,10114 4690,10115 4687,10115 4685,10115 4682,10116 4676,10117 4667,10119 4654,10121 4638,10124 4619,10127 4597,10131 4572,10136 4546,10140 4518,10146 4488,10151 4457,10158 4424,10164 4390,10171 4352,10179 4313,10187 4270,10197 4224,10207 4175,10218 4125,10230 4075,10242 4028,10254 3986,10264 3950,10273 3921,10280 3898,10286 3881,10290 3868,10294 3859,10296 3852,10298 3846,10300 3840,10301 3833,10303 3823,10306 3811,10309 3793,10314 3771,10321 3742,10329 3707,10339 3665,10352 3619,10365 3569,10380 3520,10395 3473,10409 3432,10422 3397,10433 3368,10442 3346,10449 3329,10455 3316,10459 3307,10462 3300,10464 3294,10466 3289,10468 3282,10470 3273,10474 3260,10478 3243,10484 3221,10492 3193,10502 3158,10514 3117,10528 3072,10544 3023,10561 2974,10578 2927,10595 2883,10612 2842,10627 2804,10641 2769,10654 2736,10667 2705,10679 2675,10690 2647,10701 2621,10712 2596,10722 2573,10731 2552,10739 2534,10746 2519,10752 2507,10757 2498,10761 2493,10763 2489,10764 2488,10765 2488,10766 2490,10769 2496,10778 2504,10792 2517,10813 2533,10839 2550,10868 2567,10897 2583,10923 2596,10944 2604,10958 2610,10967 2612,10970 2612,10971 2615,10970 2621,10968 2632,10963 2649,10957 2673,10948 2703,10936 2739,10922 2780,10906 2825,10889 2872,10870 2919,10852 2964,10835 3005,10819 3041,10805 3071,10793 3095,10784 3112,10778 3123,10773 3129,10771 3132,10770 3133,10769 3137,10768 3142,10766 3151,10763 3163,10759 3178,10754 3196,10747 3216,10740 3239,10732 3264,10723 3290,10714 3318,10704 3347,10694 3378,10684 3411,10673 3446,10661 3483,10649 3524,10636 3567,10622 3614,10608 3662,10593 3710,10578 3755,10565 3795,10553 3830,10543 3858,10535 3880,10528 3896,10523 3909,10520 3918,10517 3925,10515 3930,10513 3936,10512 3943,10510 3952,10508 3964,10504 3981,10500 4003,10494 4031,10487 4066,10478 4107,10468 4152,10456 4201,10444 4250,10432 4296,10421 4336,10412 4371,10403 4399,10397 4422,10392 4439,10388 4451,10385 4460,10383 4467,10381 4473,10380 4479,10378 4486,10377 4495,10375 4508,10373 4525,10369 4547,10365 4576,10359 4611,10352 4652,10345 4698,10336 4747,10327 4796,10318 4844,10310 4889,10303 4931,10296 4970,10290 5006,10284 5040,10280 5072,10275 5103,10271 5132,10267 5159,10264 5185,10260 5209,10257 5230,10255 5249,10253 5265,10251 5277,10249 5286,10248 5292,10248 5296,10247 5297,10247 5298,10247 5302,10246 5313,10245 5331,10244 5355,10241 5384,10238 5412,10236 5436,10233 5454,10232 5465,10231 5469,10230 5470,10230 5473,10230 5478,10229 5487,10229 5499,10228 5514,10227 5530,10226 5548,10225 5568,10223 5590,10222 5616,10221 5644,10220 5672,10219 5695,10218 5711,10218 5722,10218 5727,10218 5731,10218 5735,10218 5740,10218 5751,10218 5767,10218 5790,10218 5818,10218 5846,10218 5869,10219 5885,10219 5896,10220 5902,10220 5905,10220 5909,10220 5915,10220 5925,10221 5941,10221 5964,10223 5992,10225 6020,10227 6046,10230 6068,10232 6088,10234 6105,10237 6121,10239 6135,10241 6147,10242 6156,10244 6161,10245 6164,10245 6166,10245 6176,10247 6194,10250 6212,10253 6222,10255 6224,10255 6225,10255 6230,10256 6239,10258 6250,10260 6265,10263 6283,10267 6300,10271 6309,10274 6312,10274 6315,10275 6324,10278 6341,10283 6358,10288 6367,10291 6370,10292 6373,10293 6382,10296 6399,10302 6417,10309 6430,10314 6441,10318 6450,10322 6454,10324 6455,10324 6456,10324 6460,10326 6465,10328 6469,10330 6470,10330 6472,10331 6475,10332 6479,10334 6484,10337 6489,10340 6491,10341 6493,10342 6498,10345 6503,10348 6505,10349 6507,10350 6512,10353 6517,10356 6521,10358 6524,10360 6526,10361 6527,10362 6530,10368 6534,10377 6537,10383 6538,10384 6538,10385 6538,10389 6539,10400 6540,10416 6542,10436 6543,10456 6544,10472 6545,10483 6545,10487 6545,10488 6545,10491 6544,10496 6543,10504 6541,10514 6539,10526 6536,10539 6532,10553 6527,10571 6521,10590 6514,10609 6509,10623 6505,10632 6503,10637 6501,10639 6500,10642 6497,10647 6493,10655 6486,10669 6476,10687 6466,10705 6458,10718 6453,10727 6450,10731 6448,10734 6447,10736 6444,10741 6438,10749 6429,10762 6418,10778 6406,10795 6396,10809 6387,10821 6378,10831 6371,10840 6365,10847 6360,10853 6357,10857 6355,10859 6354,10860 6351,10863 6343,10872 6330,10886 6312,10906 6291,10929 6271,10952 6253,10972 6240,10986 6232,10995 6229,10998 6228,10999 6226,11001 6222,11005 6215,11012 6205,11021 6194,11032 6181,11044 6167,11058 6151,11073 6132,11089 6111,11108 6088,11128 6065,11148 6046,11164 6032,11175 6023,11182 6018,11187 6015,11189 6012,11191 6007,11195 5998,11202 5984,11213 5964,11228 5940,11247 5916,11265 5896,11281 5881,11291 5872,11298 5867,11302 5864,11304 5860,11306 5855,11310 5846,11317 5831,11327 5811,11341 5786,11359 5761,11377 5738,11392 5717,11406 5699,11418 5683,11429 5669,11438 5655,11447 5644,11454 5636,11459 5631,11462 5629,11464 5626,11466 5621,11469 5610,11475 5594,11485 5572,11498 5544,11515 5510,11536 5471,11559 5429,11584 5384,11611 5340,11638 5298,11663 5259,11686 5225,11707 5197,11724 5175,11737 5159,11747 5148,11753 5143,11756 5140,11758 5139,11759 5136,11760 5130,11763 5122,11768 5111,11774 5096,11782 5079,11791 5060,11802 5038,11813 5014,11826 4989,11839 4963,11853 4935,11868 4905,11883 4873,11899 4840,11916 4804,11934 4764,11954 4722,11974 4678,11996 4631,12018 4584,12040 4541,12060 4502,12078 4468,12093 4441,12106 4420,12116 4403,12123 4391,12128 4383,12132 4376,12135 4370,12138 4365,12140 4358,12143 4349,12146 4337,12151 4320,12158 4299,12167 4271,12179 4237,12193 4197,12209 4153,12228 4105,12247 4057,12266 4012,12284 3972,12300 3938,12313 3910,12324 3888,12332 3872,12339 3859,12343 3850,12347 3844,12349 3838,12351 3832,12353 3825,12356 3816,12359 3804,12363 3787,12369 3765,12377 3737,12387 3702,12400 3662,12414 3616,12430 3568,12447 3519,12464 3472,12480 3428,12495 3387,12509 3349,12521 3313,12533 3279,12544 3248,12554 3218,12564 3189,12573 3162,12581 3137,12589 3113,12596 3092,12603 3073,12609 3058,12613 3046,12617 3037,12620 3031,12622 3027,12623 3026,12623 3022,12624 3014,12626 3000,12630 2980,12636 2953,12644 2922,12653 2888,12663 2854,12673 2823,12682 2796,12690 2776,12696 2762,12700 2754,12702 2750,12703 2748,12704 2744,12705 2737,12707 2727,12709 2714,12713 2698,12717 2680,12722 2661,12727 2640,12732 2618,12738 2594,12744 2567,12751 2538,12759 2505,12767 2471,12775 2437,12783 2406,12791 2382,12796 2363,12801 2350,12804 2341,12806 2335,12807 2331,12808 2327,12809 2322,12811 2313,12813 2300,12816 2281,12820 2256,12825 2225,12832 2191,12839 2157,12846 2126,12853 2101,12858 2082,12862 2069,12864 2060,12866 2054,12867 2050,12868 2046,12869 2040,12870 2031,12872 2018,12874 1999,12878 1973,12882 1943,12888 1908,12894 1873,12900 1840,12906 1811,12911 1784,12915 1759,12919 1736,12923 1715,12926 1696,12929 1678,12931 1662,12934 1649,12936 1638,12937 1631,12938 1627,12939 1625,12939 1624,12939 1621,12940 1612,12941 1597,12943 1576,12945 1549,12949 1519,12953 1489,12956 1462,12960 1441,12962 1426,12964 1417,12965 1414,12966 1413,12966 1411,12966 1406,12967 1399,12968 1388,12969 1375,12970 1360,12972 1343,12973 1325,12975 1305,12977 1282,12979 1258,12981 1230,12983 1200,12985 1170,12987 1145,12988 1125,12989 1111,12990 1102,12991 1097,12991 1093,12991 1089,12991 1084,12991 1075,12992 1061,12992 1041,12992 1016,12993 986,12993 956,12993 931,12993 911,12993 897,12993 888,12993 883,12993 879,12992 876,12992 870,12992 861,12992 848,12991 828,12990 803,12989 773,12987 743,12985 716,12983 691,12980 669,12978 649,12976 631,12974 614,12972 599,12970 586,12968 575,12967 567,12966 563,12965 561,12965 560,12965 555,12964 543,12962 527,12959 510,12956 498,12954 493,12953 492,12953 489,12952 483,12951 475,12950 465,12948 453,12945 439,12942 423,12938 407,12934 397,12931 392,12930 389,12929 387,12929 382,12927 371,12924 356,12919 341,12914 330,12910 325,12908 323,12907 320,12906 315,12904 305,12900 290,12894 275,12887 262,12882 251,12877 242,12873 235,12869 230,12866 227,12865 225,12864 223,12863 221,12862 220,12862 219,12861 217,12860 215,12859 213,12858 212,12857 211,12856 209,12855 207,12854 206,12853 204,12852 202,12851 200,12850 199,12849 198,12848 198,12847 196,12845 192,12841 190,12839 190,12838 "
     transform="translate(-14.5,1651.7881)" />
  <polyline
     id="polyline20"
     style="fill:#f6bc08;stroke:#f6bc08;stroke-width:0;stroke-linecap:butt;stroke-linejoin:miter"
     points="3540,11495 4133,10752 4144,10919 4595,10499 4032,11201 4023,11016 3540,11495 "
     transform="translate(-14.5,1651.7881)" />
  <polyline
     id="polyline22"
     style="fill:none;stroke:#000000;stroke-width:15;stroke-linecap:butt;stroke-linejoin:miter"
     points="3540,11495 4133,10752 4144,10919 4595,10499 4032,11201 4023,11016 3540,11495 "
     transform="translate(-14.5,1651.7881)" />
</svg>
