<?xml version="1.0" encoding="utf-8"?>
<!-- Generator: Adobe Illustrator 12.0.0, SVG Export Plug-In . SVG Version: 6.00 Build 51448)  -->
<!DOCTYPE svg PUBLIC "-//W3C//DTD SVG 1.1//EN" "http://www.w3.org/Graphics/SVG/1.1/DTD/svg11.dtd" [
	<!ENTITY ns_svg "http://www.w3.org/2000/svg">
	<!ENTITY ns_xlink "http://www.w3.org/1999/xlink">
]>
<svg  version="1.1" id="Layer_1" xmlns="&ns_svg;" xmlns:xlink="&ns_xlink;" width="200.137" height="213.024"
	 viewBox="0 0 200.137 213.024" overflow="visible" enable-background="new 0 0 200.137 213.024" xml:space="preserve">
<g>
	<rect fill="#003876" width="200.137" height="188.44"/>
	<path d="M100.068,94.22"/>
</g>
<g>
	<path fill="#FFD659" d="M185.997,123.56c-3.962,0.897-9.494,2.093-12.709,2.542v1.944c4.859,0.448,5.009,0.448,5.009,4.859v36.632
		c0,4.112-0.448,4.56-5.083,5.009v2.093h17.942v-2.093c-4.859-0.449-5.159-0.897-5.159-5.009V123.56z M153.19,155.333
		c0.598-5.607,3.738-9.121,6.878-9.121c3.289,0,5.607,3.888,5.607,6.878c0,1.645-0.299,2.093-1.346,2.093L153.19,155.333z
		 M172.029,168.565c-2.916,2.243-5.308,3.14-7.85,3.14c-5.607,0-11.513-3.888-11.364-13.307c8.149-0.299,17.793-1.047,18.84-1.196
		c1.42-0.299,1.57-0.449,1.57-3.215c0-5.382-4.859-10.69-11.139-10.69c-9.869,0-16.821,9.195-16.671,18.541
		c0.149,8.747,5.906,15.699,15.699,15.699c2.093,0,7.7-1.495,11.962-7.7L172.029,168.565z M132.213,144.193v2.093l1.944,0.225
		c1.42,0.224,1.046,1.046-0.075,2.916c-1.122,1.869-2.467,3.887-3.962,5.98l-4.336-6.504c-0.972-1.42-0.822-2.168,0.448-2.317
		l1.944-0.299v-2.093h-16.522v2.093c4.037,0.449,4.561,0.748,7.027,4.561l6.953,10.765c-2.317,3.14-4.485,5.981-6.205,8.224
		c-3.14,4.037-4.262,4.112-8.523,4.71v2.093h14.055v-2.093l-2.168-0.374c-1.196-0.225-1.42-0.673-0.224-2.691
		c1.42-2.393,3.065-4.86,4.71-7.252l4.859,7.401c0.972,1.495,0.897,2.467-0.449,2.616l-2.168,0.299v2.093h17.718v-2.093
		c-4.037-0.449-5.009-0.748-7.925-5.159l-7.551-11.438c2.617-3.588,4.71-6.205,5.532-7.251c3.14-3.813,4.037-3.962,8.747-4.411
		v-2.093H132.213z M91.855,155.333c0.598-5.607,3.738-9.121,6.878-9.121c3.29,0,5.607,3.888,5.607,6.878
		c0,1.645-0.299,2.093-1.345,2.093L91.855,155.333z M110.695,168.565c-2.916,2.243-5.308,3.14-7.85,3.14
		c-5.607,0-11.513-3.888-11.363-13.307c8.149-0.299,17.792-1.047,18.839-1.196c1.42-0.299,1.57-0.449,1.57-3.215
		c0-5.382-4.859-10.69-11.139-10.69c-9.868,0-16.821,9.195-16.671,18.541c0.149,8.747,5.906,15.699,15.7,15.699
		c2.093,0,7.7-1.495,11.961-7.7L110.695,168.565z M71.442,143.147c-3.887,1.196-8.822,2.243-12.485,2.841v1.719
		c4.635,0.449,4.785,0.598,4.785,5.159v16.671c0,4.112-0.448,4.56-4.859,5.009v2.093h18.466v-2.093
		c-5.458-0.449-5.906-0.897-5.906-5.009v-15.102c1.645-3.29,3.364-4.187,4.635-4.187c1.196,0,2.392,0.598,3.439,1.645
		c0.448,0.449,1.346,0.598,2.168,0.299c1.719-0.673,3.065-2.841,3.065-4.71c0-2.093-1.943-4.336-4.635-4.336
		c-3.664,0-6.654,4.71-8.448,7.551h-0.224V143.147z M21.6,135.222c0-1.943,0-3.289,0.448-3.663c0.449-0.374,2.393-0.673,4.859-0.673
		c11.962,0,20.036,5.532,20.036,21.531c0,12.41-6.429,21.157-18.839,21.157c-5.756,0-6.504-1.42-6.504-8.298V135.222z
		 M7.096,128.045v2.093c5.532,0.449,6.13,1.046,6.13,9.121v26.166c0,8.074-0.598,8.672-6.729,9.121v2.093h18.316
		c17.494,0,31.698-8.074,31.698-26.465c0-6.579-2.841-12.111-6.28-15.55c-4.934-4.785-12.56-6.579-20.933-6.579H7.096z"/>
</g>
<g>
	<path fill="#003876" d="M23.968,197.701v8.15c0,2.537-0.125,4.844-3.285,4.844c-3.16,0-3.285-2.308-3.285-4.844v-8.15h-3.223v9.398
		c0,3.992,2.869,5.925,6.508,5.925s6.508-1.934,6.508-5.925v-9.398H23.968z"/>
	<polygon fill="#003876" points="49.103,212.713 49.103,197.701 46.087,197.701 46.087,209.469 46.046,209.511 40.328,197.701 
		35.546,197.701 35.546,212.713 38.561,212.713 38.561,200.279 38.603,200.238 44.528,212.713 	"/>
	<rect x="57.042" y="197.701" fill="#003876" width="3.223" height="15.012"/>
	<polygon fill="#003876" points="72.693,212.713 76.207,212.713 81.738,197.701 78.557,197.701 74.627,209.532 74.585,209.532 
		70.676,197.701 67.163,197.701 	"/>
	<polygon fill="#003876" points="88.557,212.713 98.849,212.713 98.849,210.218 91.78,210.218 91.78,206.205 98.184,206.205 
		98.184,203.71 91.78,203.71 91.78,200.196 98.62,200.196 98.62,197.701 88.557,197.701 	"/>
	<path fill="#003876" d="M109.923,200.196h2.703c1.414,0.021,2.246,0.583,2.246,1.913s-0.832,2.038-2.246,2.059h-2.703V200.196z
		 M109.923,206.662h3.41c1.06,0.042,1.268,1.185,1.351,2.017c0.146,1.352,0.292,2.703,0.562,4.034h3.556
		c-0.603-0.832-0.728-2.599-0.874-3.556c-0.27-2.079-0.27-3.597-2.745-3.867v-0.042c1.851-0.395,3.119-1.684,3.119-3.639
		c0-3.057-2.641-3.888-5.219-3.909h-6.383v15.012h3.223V206.662z"/>
	<path fill="#003876" d="M137.263,201.984c0-3.015-2.267-4.595-5.177-4.595c-3.078,0-6.238,1.518-6.238,4.948
		c0,2.662,2.869,3.618,4.969,4.138c1.289,0.333,3.431,0.458,3.431,2.225c0,1.601-1.705,1.996-2.994,1.996
		c-1.684,0-2.641-1.123-2.516-2.786h-3.285c-0.104,3.784,2.329,5.115,5.759,5.115c3.223,0,6.466-1.289,6.466-5.011
		c0-3.015-3.368-3.659-5.655-4.242c-1.289-0.312-2.745-0.499-2.745-2.121c0-1.31,1.206-1.934,2.391-1.934
		c1.559,0,2.37,0.749,2.495,2.266H137.263z"/>
	<rect x="145.286" y="197.701" fill="#003876" width="3.223" height="15.012"/>
	<polygon fill="#003876" points="155.448,200.196 159.918,200.196 159.918,212.713 163.141,212.713 163.141,200.196 
		167.611,200.196 167.611,197.701 155.448,197.701 	"/>
	<polygon fill="#003876" points="178.603,212.713 181.826,212.713 181.826,207.806 186.878,197.701 183.572,197.701 
		180.412,204.583 177.314,197.701 173.55,197.701 178.603,207.806 	"/>
</g>
<path fill="#FFD659" d="M146.448,21.879c-3.304,0.45-6.25,2.432-8.035,5.495c-1.607,2.973-2.232,7.297,0.089,10.18
	c1.161,1.351,2.589,2.433,4.375,2.522c4.821-0.541,7.946-5.585,12.588-6.756c3.036-0.991,5.536,0.721,7.678,2.433
	c1.607,0.991,3.839,0.721,5.357-0.271c-5,4.054-8.392,10.09-8.928,16.667c-0.714-3.063-2.589-6.396-5.625-7.478
	c-3.393-1.261-6.339,0.811-8.66,3.063c-2.143,2.252-3.035,5.135-4.196,7.838c1.607-1.441,3.571-3.333,5.981-3.784
	c3.036-0.901,5.893,0.09,8.303,1.892c0.803,0.811,1.786,1.532,2.143,2.793c-3.035,2.072-4.018,5.585-3.839,9.279
	c-0.982-2.883-2.053-6.396-5.357-7.658c-2.143-0.901-4.821-0.631-6.517,1.171c-1.429,1.532-1.518,3.964-1.161,6.036
	c1.339,5.855,6.696,9.279,11.785,10.991c5.268,1.892,10.089,6.757,10.714,12.522c0.804-0.18,2.143-0.811,2.857,0.09
	c0.803-2.703,2.053-6.216,5.267-7.117c2.321-0.901,4.732,0,6.518,1.622c1.875,2.072,2.768,4.775,2.232,7.658
	c-0.268,1.171-0.804,2.252-1.518,3.243c0.268-1.351,0.446-3.514-0.446-4.774c-0.714-0.991-1.786-1.712-2.946-1.712
	c-0.893-0.09-1.518,0.45-1.964,1.171c-0.982,4.415,4.554,5.586,4.732,9.73c0.089,2.252-0.804,4.324-2.768,5.315
	c-2.143,0.901-4.464,0.09-5.982-1.531c-0.803-0.721-1.428-1.622-1.786-2.522c1.607,0.811,4.553,1.622,6.25,0.09
	c0.804-0.721,1.161-1.622,1.161-2.703c0.179-1.622-1.071-2.973-2.143-3.874c-0.982-0.721-2.054-1.171-3.304-1.351
	c0.714,1.441,0.625,3.423-0.357,4.685c-1.607,2.252-4.464,2.072-6.963,1.802c-2.678,6.756-10.088,10.36-16.695,12.162l-4.821,0.36
	c3.036,1.892,6.25,3.333,9.464,4.865c1.696-3.063,4.106-6.486,7.767-7.207c2.678-0.36,5.178,0.541,6.696,2.703
	c1.25,2.252,2.054,5.315,0.982,7.928l-1.161,2.162c0.536-1.982-0.089-4.504-1.786-6.036c-0.893-0.721-2.054-1.081-3.214-0.901
	c-1.071,0.18-2.143,0.901-2.5,1.982c-1.161,5.315,6.696,5.405,5.803,10.811c-0.178,1.442-0.803,2.613-2.053,3.604
	c-1.875,1.531-5.268,1.711-7.5,0.54c-1.428-0.541-2.678-1.711-3.839-2.703c-1.786,0.991-4.553,1.081-6.16-0.36
	c-2.411-1.982-2.857-4.865-3.571-7.658c-9.821-3.874-19.017-9.549-26.695-17.838c-5.446-5.855-7.857-13.874-6.607-22.072
	c1.25-7.567,0.535-16.306-5.982-20.811c-3.036-1.622-6.964-2.432-10.356-1.081c-3.393,1.441-5.714,5.225-5.803,9.009
	c0.179,6.757,3.929,12.433,6.964,18.198c2.857,6.847,1.607,15.405-3.75,20.45c-4.196,5.135-10.177,6.667-14.82,10.901
	c-0.625,0.631-0.893,1.622-0.536,2.432c1.518,1.982,4.464,1.982,6.964,1.802c5.357-0.991,9.374-5.045,14.463-6.486
	c3.214-0.451,6.339,0.63,8.035,3.423c0.625,1.171,1.161,2.703,0.714,4.144s-1.518,2.793-2.768,3.423
	c-0.803,0.36-1.964,0.271-2.857,0.18c1.071-0.36,2.411-1.171,2.768-2.612c0.268-1.171-0.089-2.433-0.893-3.333
	c-0.982-0.901-2.054-1.352-3.393-1.352c0.803,0.991,1.518,2.343,1.339,3.874c-0.357,2.342-1.964,4.595-4.285,5.225
	c-1.161,0.36-2.321-0.09-3.303-0.721c-0.893-0.721-1.25-1.532-1.696-2.433c0.625,0.631,1.428,1.081,2.321,0.991
	c1.25-0.18,2.143-0.901,2.589-2.072c0.268-0.811,0.268-1.892-0.179-2.612c-0.536-0.811-1.428-1.352-2.5-1.081
	c-3.393,1.081-4.107,5.855-7.589,6.937c-4.464,0.36-9.196-0.18-13.838,0.09l-14.106,0.36c-0.804-0.27-1.786-0.45-2.143-1.351
	c-1.607-2.703,2.411-5.766-0.982-7.838c-8.571-5.856-18.124-11.712-23.749-21.261c-5.089-8.559-9.464-21.441-3.037-30.811
	c3.393-4.865,9.017-7.748,15.178-6.667c4.91,0.631,9.017,4.685,10.267,9.37l0.268,1.622c-1.875-3.333-4.911-6.667-8.75-7.928
	c0.357,0.991,0.179,2.432,0,3.513c-0.714-1.622-2.679-3.063-4.464-3.693c0.804,1.441,1.697,3.153,1.429,5.045
	c-1.25-1.441-3.125-2.883-5.178-2.343c1.607,1.352,3.036,2.793,3.661,4.865c-1.428-0.901-3.571-1.802-5.535-0.991
	c1.696,1.081,4.732,1.982,4.732,4.775c-0.893-0.631-2.143-0.901-3.214-0.631l-1.339,0.631c1.339,0.541,3.214,0.991,4.196,2.432
	l0.804,1.441c-1.875-0.18-3.839,0.09-5.178,1.532c2.054,0.36,4.196,0.63,5.536,2.522c-1.786,0.45-3.661,1.441-4.286,3.423
	c1.696-0.901,4.286-0.901,5.893,0.45c-1.964,1.082-4.018,3.153-3.482,5.766c1.696-1.352,4.107-2.522,6.428-1.441
	c-2.5,1.081-4.107,3.604-4.196,6.126l0.089,0.721c1.786-2.072,4.106-3.423,6.874-2.883c-2.41,1.171-3.481,3.604-3.213,6.306
	c0.446-0.271,0.803-0.901,1.339-1.261c1.696-1.081,3.393-2.162,5.356-2.252c-1.339,1.801-3.214,4.144-2.41,6.756
	c1.25-2.342,3.571-4.865,6.25-5.135c-1.339,1.802-1.786,4.054-1.786,6.396c1.875-2.612,4.643-5.675,7.767-6.847
	c-1.071,1.982-2.053,5.315-0.893,7.748c0.893-2.973,2.768-6.036,5-8.018c-0.446,2.522,0.357,4.865,2.321,6.577l0.179-0.18
	c-0.089-3.244,1.161-6.036,2.768-8.469c-0.357,2.162,0.893,4.144,2.768,5.226l0.804,0.36c-0.893-2.252-1.518-4.865-1.072-7.658
	c1.607,1.711,3.929,3.784,6.518,3.423c-3.839-3.423-7.678-7.207-9.285-11.982c1.518,1.622,3.928,2.703,6.517,2.522
	c-4.821-3.423-9.196-9.369-9.642-15.585c1.071,2.522,3.482,4.505,5.981,5.406c-3.393-5.045-6.964-10.901-5.089-17.748
	c0.446,3.243,2.321,6.847,5.714,7.837c-1.875-3.513-4.375-7.117-3.839-11.621c0.178-2.793,1.071-5.496,2.678-7.748
	c-1.161,2.523-1.339,6.486,0.982,8.829l0.179,0.18c-0.714-7.027,1.964-13.964,8.035-17.207l2.321-1.261
	c-1.875,2.432-3.125,5.045-3.125,8.198c2.678-5.766,8.302-11.441,15.445-11.081c1.071-0.09,2.053,0.09,3.036,0.271
	c-2.946,1.351-6.606,3.604-6.964,7.297c4.821-4.414,11.606-6.847,18.213-4.414c1.518,0.631,3.214,1.441,4.196,2.703
	c-2.321-1.261-5-0.271-6.964,0.991c-0.893,0.63-2.143,1.531-2.5,2.612c4.553-1.711,11.517-2.883,15.088,1.712l2.232,3.514
	c-2.411-1.622-5.268-2.973-8.393-2.343c-0.536,0.18-1.071,0.451-1.607,0.901c5,0.18,9.91,2.613,11.963,7.297l0.625,2.793
	c-1.25-2.433-3.839-4.865-6.785-4.955c1.696,1.802,4.286,3.604,5.089,6.126c1.696,3.784,2.143,8.378,6.25,10.721
	c1.607,0.811,3.303,1.352,5.089,1.622c-6.16-2.522-8.392-9.91-8.839-16.396c1.518,1.892,3.482,3.604,5.625,4.504
	c-1.071-1.352-2.143-2.252-3.303-3.694c-3.571-4.324-5.714-10-4.375-15.766c0.982-3.693,3.481-6.756,5.892-9.819
	c-1.964,3.784-2.321,9.279,0.089,12.973c1.161,1.802,2.768,3.333,4.375,4.504c-3.125-4.144-4.554-10.27-2.679-15.585
	c2.678-7.297,10.177-11.171,17.409-11.711L146.448,21.879z"/>
<path fill="#003876" d="M136.449,38.996c0.179,2.433-0.625,5.766,1.518,7.387c2.5,0.631,3.928-2.342,5.267-3.784
	c-0.357,0.09-0.625,0.271-0.893,0.36c-1.518,0.631-3.214,0.09-4.375-0.811C137.074,41.249,136.538,40.257,136.449,38.996z"/>
<path fill="#003876" d="M123.326,77.284c0.357,2.883,0.357,5.766,1.25,8.378c1.25,3.784,3.214,8.468,7.678,8.739
	c1.161,0,2.143-0.36,2.946-1.171c2.679-3.063,1.071-8.018,0-11.261c-0.982,1.441-2.589,2.613-4.375,2.793
	C126.897,84.851,124.665,80.437,123.326,77.284z"/>
<path fill="#003876" d="M153.86,122.058c-0.268,1.982-1.161,3.784-2.678,5.315c1.607,0.901,3.839,1.531,5.714,0.721
	c0.804-0.36,1.696-1.352,1.696-2.342c0.178-1.171-0.268-2.072-1.071-2.883C156.449,122.148,155.2,121.878,153.86,122.058z"/>
<path fill="#003876" d="M155.465,36.293c-0.535,0.631-0.268,1.532,0.179,2.162c0.982,1.082,2.768,1.082,4.107,0.721
	c0.804-0.36,1.339-1.171,1.161-2.163C159.929,35.033,156.804,34.672,155.465,36.293z"/>
<path fill="#003876" d="M142.701,121.968l0.089,1.261c0.268,0.811,0.536,1.801,1.607,1.711c0.804-0.18,1.428-0.901,1.518-1.711
	L142.701,121.968z"/>
<path fill="#003876" d="M163.056,92.419c0.178,1.441,0.089,3.063-0.357,4.415c1.25-0.451,2.232-1.081,2.321-2.522
	C164.662,93.41,163.859,92.779,163.056,92.419z"/>
</svg>
